<?xml version="1.0" standalone="no"?><!DOCTYPE svg PUBLIC "-//W3C//DTD SVG 1.1//EN" "http://www.w3.org/Graphics/SVG/1.1/DTD/svg11.dtd"><svg t="1516065412612" class="icon" style="" viewBox="0 0 1024 1024" version="1.1" xmlns="http://www.w3.org/2000/svg" p-id="3331" xmlns:xlink="http://www.w3.org/1999/xlink" width="32" height="32"><defs><style type="text/css"></style></defs><path d="M513.17936 327.499939c-97.381911 0.276293-173.706227 77.54819-173.566034 175.721117 0.127913 93.585445 79.509868 171.686221 173.621293 171.042561 100.024088-0.679475 174.949544-82.944084 173.378769-177.361477C685.079452 404.480194 607.187431 327.232856 513.17936 327.499939zM512.783341 662.519132l0-161.344688L351.233991 501.174444c-2.479471-87.311555 72.77856-163.825183 161.697729-162.118308l0 161.51865c54.411237 0 108.054995 0 161.666006-0.004093C678.327678 583.364351 605.245196 664.397922 512.783341 662.519132z" p-id="3332"></path><path d="M357.912088 396.333654c9.462512-11.268648 19.135826-22.372543 28.28623-33.892925 9.222035-11.616572 6.898107-25.291013-5.476735-30.323633-4.928243-2.00261-11.016915-1.159406-16.98893-1.642406 0.031722 0.615007-0.071631-0.156566-0.039909-0.919952 0.38374-9.43386-4.932336-15.417131-12.667507-19.151176-7.40669-3.573385-13.966083 0.092098-18.723434 5.420453-13.356193 14.950504-26.166963 30.388101-39.454594 45.945425 18.576077 15.569604 36.635385 30.707372 55.130621 46.208415C351.53382 403.817092 354.751095 400.103514 357.912088 396.333654zM314.569954 355.512946c7.062859-8.438183 13.487176-16.240893 20.058848-23.919782 3.521197-4.112668 8.518001-4.372587 12.626575-0.958838 3.717671 3.086291 4.297886 7.538697 1.020236 11.56029-6.615675 8.117888-13.45443 16.052604-20.522406 24.443715C323.291592 362.872564 319.122643 359.354438 314.569954 355.512946zM358.599749 348.282265c3.378957-3.904936 8.395204-4.173043 12.292977-1.151219 3.947915 3.065825 4.960988 8.677637 1.686409 12.751419-6.967692 8.670473-14.254655 17.084097-21.816888 26.094308-4.976338-4.217045-9.329483-7.907087-13.942547-11.812023C344.262206 365.29473 351.321996 356.692818 358.599749 348.282265z" p-id="3333"></path><path d="M702.530916 330.346777l-41.523719 17.528212 27.773554-35.903721c0 0-11.776208-12.45159-12.391215-12.919241-11.860119 15.19712-45.165666 57.712423-45.165666 57.712423l14.110369 16.129352 41.504276-16.97665-25.058722 36.939307 12.791327 16.604166 65.963341-31.986505c0 0-7.479345-9.225105-11.252275-13.878079-13.099343 6.163373-41.240263 19.411095-41.240263 19.411095l26.545586-37.515429L702.530916 330.346777z" p-id="3334"></path><path d="M511.999488 56.482409c-246.99951 0-447.230857 200.231347-447.230857 447.230857 0 246.998487 200.23237 447.231881 447.230857 447.231881 246.99951 0 447.229834-200.233394 447.229834-447.231881C959.229323 256.713756 758.998999 56.482409 511.999488 56.482409zM513.059634 793.905508c-164.119895 0.387833-295.311843-134.898363-293.333792-296.497854 1.915629-156.568918 130.068358-291.865347 297.918203-289.711288 157.905356 2.034333 289.144376 129.940444 288.696168 293.309232C805.893029 664.329361 675.133939 793.898345 513.059634 793.905508z" p-id="3335"></path><path d="M508.370845 217.770815c-151.193491 2.422166-278.335193 125.742842-278.491759 282.560424C229.587444 658.70527 358.013395 780.908496 506.852258 783.756357c158.90001 3.036149 289.700031-125.199467 289.400203-283.790438C795.955702 341.978698 665.387971 215.256552 508.370845 217.770815zM513.343089 772.036431c-149.027152 0.419556-269.804912-119.659287-271.744078-267.515776-1.994424-151.801335 120.467699-275.029914 271.468808-275.0381 149.974733-0.008186 272.279267 122.236995 271.431969 271.488251C783.644305 651.621944 663.389454 771.83484 513.343089 772.036431z" p-id="3336"></path><path d="M487.937466 266.505773 506.420423 315.444369 522.305205 315.444369 540.697087 267.828908 540.697087 315.484278 554.883181 315.484278 554.883181 244.284679 533.142018 244.284679 514.406305 294.342772 494.895949 244.284679 473.717603 244.284679 473.717603 315.444369 487.937466 315.444369Z" p-id="3337"></path></svg>